<svg width="21" height="21" viewBox="0 0 21 21" fill="none" xmlns="http://www.w3.org/2000/svg">
<path d="M17.1818 0H3.81818C1.70946 0 0 1.70946 0 3.81818V17.1818C0 19.2905 1.70946 21 3.81818 21H17.1818C19.2905 21 21 19.2905 21 17.1818V3.81818C21 1.70946 19.2905 0 17.1818 0Z" fill="#AC3831"/>
<path d="M11.0367 11.1142C11.6877 11.1142 12.312 10.8556 12.7723 10.3952C13.2326 9.93493 13.4912 9.31061 13.4912 8.65962C13.4912 8.00864 13.2326 7.38431 12.7723 6.924C12.312 6.46368 11.6877 6.20508 11.0367 6.20508C10.3857 6.20508 9.76136 6.46368 9.30104 6.924C8.84072 7.38431 8.58212 8.00864 8.58212 8.65962C8.58212 9.31061 8.84072 9.93493 9.30104 10.3952C9.76136 10.8556 10.3857 11.1142 11.0367 11.1142ZM10.1603 12.0346C8.27147 12.0346 6.74121 13.5649 6.74121 15.4537C6.74121 15.7682 6.99625 16.0233 7.31074 16.0233H14.7626C15.0771 16.0233 15.3321 15.7682 15.3321 15.4537C15.3321 13.5649 13.8019 12.0346 11.913 12.0346H10.1603Z" fill="white"/>
</svg>
